<svg width="160" height="555" viewBox="0 0 160 555" fill="none" xmlns="http://www.w3.org/2000/svg">
<path d="M3.125 0.0629916C12.8872 0.0629921 21.6906 1.1961 29.5352 3.46233C37.5541 5.90287 44.8758 10.0867 51.5001 16.0137C58.2988 22.1151 64.836 30.8313 71.1117 42.1624C75.6441 50.1814 79.6536 57.5902 83.1401 64.3888C86.8009 71.3618 90.5489 76.8531 94.384 80.8625C98.2192 85.0463 102.752 87.1382 107.981 87.1382C113.56 87.1382 118.528 84.6977 122.886 79.8166C127.419 75.1098 129.685 68.3112 129.685 59.4206C129.685 50.0071 127.419 42.0753 122.886 35.6253C118.528 29.1752 114.083 24.0327 109.55 20.1975L130.208 2.15489C132.823 4.59544 136.048 8.69207 139.883 14.4448C143.892 20.1975 147.379 27.2577 150.342 35.6253C153.48 44.1672 155.049 53.755 155.049 64.3888C155.049 81.124 150.952 94.2856 142.759 103.873C134.566 113.461 124.281 118.255 111.904 118.255C103.362 118.255 96.0401 116.076 89.9387 111.718C84.0117 107.36 79.0434 102.13 75.034 96.0288C71.0245 90.1018 67.7123 84.6105 65.0975 79.5551C60.565 70.4902 56.5555 62.9942 53.0691 57.0672C49.5826 51.3145 46.0089 46.6949 42.3481 43.2084C38.6873 39.7219 34.242 36.9327 29.0122 34.8408L29.0122 121.132L3.12499 121.132L3.125 0.0629916ZM79.7407 280.332C64.4002 280.332 50.7157 277.369 38.6872 271.442C26.8332 265.689 17.5068 257.757 10.7081 247.646C3.90945 237.536 0.510118 226.117 0.510118 213.392C0.510119 200.492 3.90945 188.986 10.7081 178.875C17.5068 168.939 26.8332 161.007 38.6873 155.08C50.7157 149.327 64.4002 146.451 79.7407 146.451C95.0813 146.451 108.679 149.327 120.533 155.08C132.561 161.007 141.975 168.939 148.773 178.875C155.746 188.986 159.233 200.492 159.233 213.392C159.233 226.117 155.746 237.536 148.773 247.646C141.975 257.757 132.561 265.689 120.533 271.442C108.679 277.369 95.0813 280.332 79.7407 280.332ZM79.7407 251.046C90.2002 251.046 99.3523 249.39 107.197 246.077C115.216 242.94 121.404 238.494 125.762 232.742C130.295 227.163 132.561 220.713 132.561 213.392C132.561 205.896 130.295 199.271 125.762 193.519C121.404 187.766 115.216 183.233 107.197 179.921C99.3523 176.783 90.2002 175.214 79.7407 175.214C64.0515 175.214 51.3258 178.701 41.5636 185.674C31.9757 192.821 27.1818 202.06 27.1818 213.392C27.1818 220.713 29.3609 227.163 33.719 232.742C38.0771 238.494 44.1785 242.94 52.0231 246.077C60.042 249.39 69.2812 251.046 79.7407 251.046ZM3.12499 304.195C12.8872 304.195 21.6906 305.328 29.5352 307.594C37.5541 310.035 44.8758 314.219 51.5001 320.146C58.2988 326.247 64.836 334.963 71.1117 346.295C75.6441 354.313 79.6536 361.722 83.1401 368.521C86.8009 375.494 90.5489 380.985 94.384 384.995C98.2192 389.178 102.752 391.27 107.981 391.27C113.56 391.27 118.528 388.83 122.886 383.949C127.419 379.242 129.685 372.443 129.685 363.553C129.685 354.139 127.419 346.207 122.886 339.757C118.528 333.307 114.083 328.165 109.55 324.33L130.208 306.287C132.823 308.728 136.048 312.824 139.883 318.577C143.892 324.33 147.379 331.39 150.342 339.757C153.48 348.299 155.049 357.887 155.049 368.521C155.049 385.256 150.952 398.418 142.759 408.005C134.566 417.593 124.281 422.387 111.904 422.387C103.362 422.387 96.0401 420.208 89.9387 415.85C84.0117 411.492 79.0434 406.262 75.034 400.161C71.0245 394.234 67.7123 388.743 65.0974 383.687C60.565 374.622 56.5555 367.126 53.069 361.199C49.5825 355.447 46.0089 350.827 42.3481 347.34C38.6872 343.854 34.242 341.065 29.0122 338.973L29.0122 425.264L3.12498 425.264L3.12499 304.195ZM29.0122 554.132L3.12498 554.132L3.12498 454.244L29.0122 454.244L29.0122 491.375L120.271 491.375C117.656 489.457 114.78 485.971 111.642 480.915C108.504 475.86 105.889 470.369 103.798 464.442C101.706 458.689 100.66 453.546 100.66 449.014L127.593 449.014C127.593 452.501 128.639 456.51 130.731 461.042C132.823 465.575 135.263 470.02 138.052 474.378C141.016 478.911 143.805 482.746 146.42 485.884C149.209 489.022 151.214 490.852 152.434 491.375L152.434 520.923L29.0122 520.923L29.0122 554.132Z" fill="#E5F2E1"/>
</svg>
