<svg width="10" height="19" viewBox="0 0 10 19" fill="none" xmlns="http://www.w3.org/2000/svg">
<path d="M0.809858 9.88221H2.7332V17.8003C2.7332 17.9566 2.85987 18.0833 3.01621 18.0833H6.2773C6.43363 18.0833 6.56031 17.9566 6.56031 17.8003V9.9195H8.77135C8.91512 9.9195 9.03607 9.81162 9.05249 9.66882L9.3883 6.75378C9.39752 6.67357 9.37211 6.59326 9.31845 6.53309C9.26474 6.47287 9.18788 6.4384 9.10722 6.4384H6.56042V4.61111C6.56042 4.06027 6.85701 3.78095 7.44203 3.78095C7.5254 3.78095 9.10722 3.78095 9.10722 3.78095C9.26355 3.78095 9.39022 3.65422 9.39022 3.49794V0.822206C9.39022 0.665876 9.26355 0.539204 9.10722 0.539204H6.81235C6.79616 0.538411 6.76022 0.537109 6.70724 0.537109C6.30906 0.537109 4.925 0.615275 3.83171 1.62107C2.62034 2.73565 2.78873 4.07017 2.82897 4.30156V6.43834H0.809858C0.653528 6.43834 0.526855 6.56501 0.526855 6.72135V9.59914C0.526855 9.75548 0.653528 9.88221 0.809858 9.88221Z" fill="white"/>
</svg>
