<svg width="21" height="17" viewBox="0 0 21 17" fill="none" xmlns="http://www.w3.org/2000/svg">
<path d="M20.0716 2.23081C19.3345 2.55415 18.549 2.76847 17.7302 2.87253C18.5726 2.36956 19.2155 1.57917 19.5178 0.626498C18.7324 1.09478 17.8652 1.42556 16.941 1.61014C16.1952 0.816042 15.1323 0.324219 13.9727 0.324219C11.723 0.324219 9.91179 2.15028 9.91179 4.38888C9.91179 4.71098 9.93904 5.0207 10.0059 5.31554C6.6276 5.15078 3.63825 3.5316 1.63008 1.06505C1.27948 1.67333 1.07383 2.36956 1.07383 3.11906C1.07383 4.5264 1.79856 5.77392 2.87884 6.49617C2.22596 6.48378 1.58548 6.29423 1.04286 5.99567C1.04286 6.00806 1.04286 6.02416 1.04286 6.04027C1.04286 8.015 2.45144 9.65523 4.29856 10.0331C3.96779 10.1235 3.60728 10.1669 3.23315 10.1669C2.97299 10.1669 2.71035 10.152 2.46382 10.0975C2.99033 11.7068 4.48439 12.8899 6.2609 12.9283C4.87834 14.0098 3.12289 14.6614 1.2225 14.6614C0.889246 14.6614 0.569623 14.6466 0.25 14.6057C2.05005 15.7665 4.18335 16.4293 6.48389 16.4293C13.9616 16.4293 18.0498 10.235 18.0498 4.86584C18.0498 4.68621 18.0436 4.51277 18.0349 4.34057C18.8414 3.76822 19.5191 3.0534 20.0716 2.23081Z" fill="white"/>
</svg>
