<svg width="18" height="19" viewBox="0 0 18 19" fill="none" xmlns="http://www.w3.org/2000/svg">
<path d="M17.6182 5.75306C17.577 4.81817 17.4258 4.17544 17.2092 3.61851C16.9858 3.02734 16.6421 2.49806 16.1917 2.05807C15.7518 1.61124 15.219 1.26403 14.6347 1.0441C14.0745 0.82753 13.4351 0.676347 12.5003 0.635127C11.5584 0.590417 11.2594 0.580078 8.87052 0.580078C6.48166 0.580078 6.18265 0.590417 5.24427 0.631636C4.30938 0.672856 3.66665 0.824173 3.10985 1.04061C2.51855 1.26403 1.98927 1.60775 1.54928 2.05807C1.10245 2.49806 0.755372 3.03083 0.535311 3.61515C0.318741 4.17544 0.167557 4.81468 0.126338 5.74957C0.0816275 6.69144 0.0712891 6.99045 0.0712891 9.37931C0.0712891 11.7682 0.0816275 12.0672 0.122847 13.0056C0.164067 13.9404 0.315384 14.5832 0.531954 15.1401C0.755372 15.7313 1.10245 16.2606 1.54928 16.7005C1.98927 17.1474 2.52204 17.4946 3.10636 17.7145C3.66665 17.9311 4.30589 18.0823 5.24092 18.1235C6.17916 18.1648 6.47831 18.175 8.86716 18.175C11.256 18.175 11.555 18.1648 12.4934 18.1235C13.4283 18.0823 14.071 17.9311 14.6278 17.7145C15.8103 17.2573 16.7452 16.3224 17.2024 15.1401C17.4188 14.5798 17.5701 13.9404 17.6113 13.0056C17.6526 12.0672 17.6629 11.7682 17.6629 9.37931C17.6629 6.99045 17.6594 6.69144 17.6182 5.75306ZM16.0337 12.9368C15.9959 13.7961 15.8515 14.2601 15.7312 14.5695C15.4356 15.336 14.8272 15.9444 14.0607 16.24C13.7513 16.3603 13.284 16.5046 12.428 16.5424C11.5 16.5837 11.2216 16.5939 8.87401 16.5939C6.52637 16.5939 6.24455 16.5837 5.31986 16.5424C4.46056 16.5046 3.99654 16.3603 3.68719 16.24C3.30575 16.099 2.95854 15.8756 2.67671 15.5834C2.38455 15.2981 2.16113 14.9544 2.02015 14.573C1.89985 14.2636 1.75552 13.7961 1.71779 12.9403C1.67643 12.0123 1.66623 11.7338 1.66623 9.38615C1.66623 7.03852 1.67643 6.7567 1.71779 5.83214C1.75552 4.97284 1.89985 4.50882 2.02015 4.19947C2.16113 3.81789 2.38455 3.47082 2.6802 3.18886C2.96538 2.8967 3.3091 2.67328 3.69069 2.53243C4.00003 2.41213 4.46755 2.2678 5.32335 2.22993C6.2514 2.18871 6.52987 2.17838 8.87736 2.17838C11.2285 2.17838 11.5068 2.18871 12.4315 2.22993C13.2908 2.2678 13.7548 2.41213 14.0642 2.53243C14.4456 2.67328 14.7928 2.8967 15.0747 3.18886C15.3668 3.47417 15.5902 3.81789 15.7312 4.19947C15.8515 4.50882 15.9959 4.9762 16.0337 5.83214C16.0749 6.76019 16.0853 7.03852 16.0853 9.38615C16.0853 11.7338 16.0749 12.0088 16.0337 12.9368Z" fill="white"/>
<path d="M8.87032 5.26953C6.60261 5.26953 4.7627 7.10932 4.7627 9.37715C4.7627 11.645 6.60261 13.4848 8.87032 13.4848C11.1382 13.4848 12.9779 11.645 12.9779 9.37715C12.9779 7.10932 11.1382 5.26953 8.87032 5.26953ZM8.87032 12.0417C7.39914 12.0417 6.20581 10.8485 6.20581 9.37715C6.20581 7.90586 7.39914 6.71264 8.87032 6.71264C10.3416 6.71264 11.5348 7.90586 11.5348 9.37715C11.5348 10.8485 10.3416 12.0417 8.87032 12.0417Z" fill="white"/>
<path d="M14.0992 5.10738C14.0992 5.63694 13.6698 6.06632 13.1401 6.06632C12.6105 6.06632 12.1812 5.63694 12.1812 5.10738C12.1812 4.5777 12.6105 4.14844 13.1401 4.14844C13.6698 4.14844 14.0992 4.5777 14.0992 5.10738Z" fill="white"/>
</svg>
