<svg width="196" height="203" viewBox="0 0 196 203" fill="none" xmlns="http://www.w3.org/2000/svg">
<rect x="1.34375" y="67.8789" width="194" height="60" rx="3.5" stroke="#5CBE3A" stroke-opacity="0.3"/>
<path d="M45.7378 105.379V94.2469L41.1398 102.695H39.6878L35.0678 94.2469V105.379H32.6038V89.7589H35.2438L40.4138 99.3069L45.5838 89.7589H48.2238V105.379H45.7378ZM56.415 105.599C55.2123 105.599 54.1636 105.328 53.269 104.785C52.389 104.228 51.707 103.502 51.223 102.607C50.739 101.698 50.497 100.708 50.497 99.6369C50.497 98.5662 50.739 97.5836 51.223 96.6889C51.7216 95.7796 52.411 95.0536 53.291 94.5109C54.1856 93.9536 55.227 93.6749 56.415 93.6749C57.603 93.6749 58.637 93.9536 59.517 94.5109C60.4116 95.0536 61.101 95.7796 61.585 96.6889C62.0836 97.5836 62.333 98.5662 62.333 99.6369C62.333 100.708 62.091 101.698 61.607 102.607C61.123 103.502 60.4336 104.228 59.539 104.785C58.659 105.328 57.6176 105.599 56.415 105.599ZM52.983 99.6589C52.983 100.392 53.137 101.052 53.445 101.639C53.753 102.226 54.1636 102.688 54.677 103.025C55.1903 103.362 55.7696 103.531 56.415 103.531C57.0456 103.531 57.6176 103.362 58.131 103.025C58.659 102.673 59.077 102.204 59.385 101.617C59.693 101.03 59.847 100.37 59.847 99.6369C59.847 98.9036 59.693 98.2436 59.385 97.6569C59.077 97.0702 58.659 96.6082 58.131 96.2709C57.6176 95.9189 57.0456 95.7429 56.415 95.7429C55.7843 95.7429 55.205 95.9189 54.677 96.2709C54.1636 96.6082 53.753 97.0776 53.445 97.6789C53.137 98.2656 52.983 98.9256 52.983 99.6589ZM70.9473 95.9629C70.0087 95.9922 69.1727 96.2122 68.4393 96.6229C67.7207 97.0189 67.2073 97.5909 66.8993 98.3389V105.379H64.4793V93.8729H66.7233V96.4469C67.1193 95.6549 67.64 95.0242 68.2853 94.5549C68.9307 94.0709 69.6127 93.8069 70.3313 93.7629C70.4633 93.7629 70.5807 93.7629 70.6833 93.7629C70.786 93.7629 70.874 93.7702 70.9473 93.7849V95.9629ZM77.7285 105.599C76.5405 105.599 75.4992 105.328 74.6045 104.785C73.7098 104.242 73.0132 103.524 72.5145 102.629C72.0158 101.72 71.7665 100.73 71.7665 99.6589C71.7665 98.5736 72.0158 97.5762 72.5145 96.6669C73.0132 95.7576 73.7098 95.0316 74.6045 94.4889C75.4992 93.9462 76.5478 93.6749 77.7505 93.6749C78.9532 93.6749 79.9945 93.9536 80.8745 94.5109C81.7545 95.0536 82.4292 95.7722 82.8985 96.6669C83.3825 97.5616 83.6245 98.5222 83.6245 99.5489C83.6245 99.9156 83.6025 100.209 83.5585 100.429H74.3405C74.3845 101.104 74.5678 101.698 74.8905 102.211C75.2278 102.71 75.6458 103.106 76.1445 103.399C76.6578 103.678 77.2152 103.817 77.8165 103.817C78.4618 103.817 79.0705 103.656 79.6425 103.333C80.2145 103.01 80.6105 102.585 80.8305 102.057L82.8985 102.651C82.5025 103.516 81.8425 104.228 80.9185 104.785C80.0092 105.328 78.9458 105.599 77.7285 105.599ZM74.2745 98.8229H81.2265C81.1678 98.1629 80.9772 97.5836 80.6545 97.0849C80.3318 96.5716 79.9138 96.1756 79.4005 95.8969C78.9018 95.6036 78.3445 95.4569 77.7285 95.4569C77.1272 95.4569 76.5698 95.6036 76.0565 95.8969C75.5578 96.1756 75.1472 96.5716 74.8245 97.0849C74.5018 97.5836 74.3185 98.1629 74.2745 98.8229ZM91.342 105.379V89.7589H98.14C98.844 89.7589 99.4894 89.9056 100.076 90.1989C100.663 90.4922 101.169 90.8809 101.594 91.3649C102.034 91.8489 102.371 92.3916 102.606 92.9929C102.855 93.5942 102.98 94.2102 102.98 94.8409C102.98 95.5449 102.848 96.2122 102.584 96.8429C102.335 97.4589 101.983 97.9942 101.528 98.4489C101.073 98.9036 100.538 99.2336 99.922 99.4389L103.596 105.379H100.824L97.436 99.9449H93.806V105.379H91.342ZM93.806 97.7669H98.118C98.5727 97.7669 98.976 97.6349 99.328 97.3709C99.68 97.0922 99.9587 96.7329 100.164 96.2929C100.369 95.8529 100.472 95.3689 100.472 94.8409C100.472 94.2982 100.355 93.8142 100.12 93.3889C99.8854 92.9489 99.5774 92.5969 99.196 92.3329C98.8147 92.0689 98.4114 91.9369 97.986 91.9369H93.806V97.7669ZM110.428 105.599C109.24 105.599 108.198 105.328 107.304 104.785C106.409 104.242 105.712 103.524 105.214 102.629C104.715 101.72 104.466 100.73 104.466 99.6589C104.466 98.5736 104.715 97.5762 105.214 96.6669C105.712 95.7576 106.409 95.0316 107.304 94.4889C108.198 93.9462 109.247 93.6749 110.45 93.6749C111.652 93.6749 112.694 93.9536 113.574 94.5109C114.454 95.0536 115.128 95.7722 115.598 96.6669C116.082 97.5616 116.324 98.5222 116.324 99.5489C116.324 99.9156 116.302 100.209 116.258 100.429H107.04C107.084 101.104 107.267 101.698 107.59 102.211C107.927 102.71 108.345 103.106 108.844 103.399C109.357 103.678 109.914 103.817 110.516 103.817C111.161 103.817 111.77 103.656 112.342 103.333C112.914 103.01 113.31 102.585 113.53 102.057L115.598 102.651C115.202 103.516 114.542 104.228 113.618 104.785C112.708 105.328 111.645 105.599 110.428 105.599ZM106.974 98.8229H113.926C113.867 98.1629 113.676 97.5836 113.354 97.0849C113.031 96.5716 112.613 96.1756 112.1 95.8969C111.601 95.6036 111.044 95.4569 110.428 95.4569C109.826 95.4569 109.269 95.6036 108.756 95.8969C108.257 96.1756 107.846 96.5716 107.524 97.0849C107.201 97.5836 107.018 98.1629 106.974 98.8229ZM123.512 105.599C122.324 105.599 121.282 105.328 120.388 104.785C119.493 104.228 118.796 103.494 118.298 102.585C117.799 101.676 117.55 100.686 117.55 99.6149C117.55 98.5442 117.792 97.5616 118.276 96.6669C118.774 95.7576 119.464 95.0316 120.344 94.4889C121.238 93.9462 122.294 93.6749 123.512 93.6749C124.7 93.6749 125.719 93.9389 126.57 94.4669C127.435 94.9802 128.08 95.6696 128.506 96.5349L126.152 97.2829C125.888 96.7989 125.514 96.4249 125.03 96.1609C124.56 95.8822 124.04 95.7429 123.468 95.7429C122.822 95.7429 122.236 95.9116 121.708 96.2489C121.194 96.5716 120.784 97.0262 120.476 97.6129C120.182 98.1996 120.036 98.8669 120.036 99.6149C120.036 100.363 120.19 101.03 120.498 101.617C120.82 102.204 121.238 102.673 121.752 103.025C122.28 103.362 122.859 103.531 123.49 103.531C124.076 103.531 124.634 103.377 125.162 103.069C125.69 102.761 126.042 102.387 126.218 101.947L128.594 102.651C128.212 103.516 127.574 104.228 126.68 104.785C125.785 105.328 124.729 105.599 123.512 105.599ZM130.587 91.9809V89.3189H133.007V91.9809H130.587ZM130.587 105.379V93.8729H133.007V105.379H130.587ZM141.129 105.599C139.941 105.599 138.9 105.328 138.005 104.785C137.11 104.242 136.414 103.524 135.915 102.629C135.416 101.72 135.167 100.73 135.167 99.6589C135.167 98.5736 135.416 97.5762 135.915 96.6669C136.414 95.7576 137.11 95.0316 138.005 94.4889C138.9 93.9462 139.948 93.6749 141.151 93.6749C142.354 93.6749 143.395 93.9536 144.275 94.5109C145.155 95.0536 145.83 95.7722 146.299 96.6669C146.783 97.5616 147.025 98.5222 147.025 99.5489C147.025 99.9156 147.003 100.209 146.959 100.429H137.741C137.785 101.104 137.968 101.698 138.291 102.211C138.628 102.71 139.046 103.106 139.545 103.399C140.058 103.678 140.616 103.817 141.217 103.817C141.862 103.817 142.471 103.656 143.043 103.333C143.615 103.01 144.011 102.585 144.231 102.057L146.299 102.651C145.903 103.516 145.243 104.228 144.319 104.785C143.41 105.328 142.346 105.599 141.129 105.599ZM137.675 98.8229H144.627C144.568 98.1629 144.378 97.5836 144.055 97.0849C143.732 96.5716 143.314 96.1756 142.801 95.8969C142.302 95.6036 141.745 95.4569 141.129 95.4569C140.528 95.4569 139.97 95.6036 139.457 95.8969C138.958 96.1756 138.548 96.5716 138.225 97.0849C137.902 97.5836 137.719 98.1629 137.675 98.8229ZM163.021 93.8729H165.331L160.491 105.379H158.423L156.355 100.187L154.287 105.379H152.219L147.357 93.8729H149.667L153.363 103.025L154.991 98.7789L153.011 93.8949H155.057L156.355 97.4809L157.631 93.8949H159.677L157.719 98.7789L159.347 103.025L163.021 93.8729Z" fill="#5CBE3A"/>
<circle opacity="0.3" cx="46.6684" cy="189.762" r="12.3246" fill="#5CBE3A"/>
<circle cx="98.3437" cy="189.762" r="12.3246" fill="#5CBE3A"/>
<circle opacity="0.3" cx="150.019" cy="189.762" r="12.3246" fill="#5CBE3A"/>
<path d="M52.2832 10.5272C51.6974 11.113 51.6974 12.0628 52.2832 12.6486L61.8291 22.1945C62.4149 22.7803 63.3647 22.7803 63.9504 22.1945C64.5362 21.6087 64.5362 20.659 63.9504 20.0732L55.4652 11.5879L63.9504 3.10261C64.5362 2.51682 64.5362 1.56708 63.9504 0.981289C63.3647 0.395502 62.4149 0.395502 61.8291 0.981289L52.2832 10.5272ZM85.8438 10.0879L53.3438 10.0879V13.0879L85.8438 13.0879V10.0879Z" fill="#5CBE3A"/>
<path d="M144.404 10.5272C144.99 11.113 144.99 12.0628 144.404 12.6486L134.858 22.1945C134.273 22.7803 133.323 22.7803 132.737 22.1945C132.151 21.6087 132.151 20.659 132.737 20.0732L141.222 11.5879L132.737 3.10261C132.151 2.51682 132.151 1.56708 132.737 0.981289C133.323 0.395502 134.273 0.395502 134.858 0.981289L144.404 10.5272ZM110.844 10.0879L143.344 10.0879V13.0879L110.844 13.0879V10.0879Z" fill="#5CBE3A"/>
</svg>
