<svg width="170" height="168" viewBox="0 0 170 168" fill="none" xmlns="http://www.w3.org/2000/svg">
<path d="M81.04 2.04313C83.0104 -0.0250812 86.31 -0.0250787 88.2803 2.04313L106.126 20.7751C107.204 21.9067 108.749 22.4691 110.302 22.2952L136.014 19.4166C138.852 19.0988 141.38 21.2197 141.56 24.0706L143.19 49.891C143.288 51.4508 144.11 52.8749 145.412 53.74L166.958 68.0617C169.337 69.643 169.91 72.8925 168.215 75.192L152.867 96.0192C151.94 97.2774 151.654 98.8968 152.095 100.396L159.395 125.217C160.201 127.957 158.551 130.815 155.775 131.487L130.629 137.576C129.11 137.944 127.851 139.001 127.225 140.433L116.862 164.139C115.718 166.756 112.617 167.884 110.058 166.615L86.8824 155.116C85.4824 154.422 83.838 154.422 82.4379 155.116L59.2619 166.615C56.703 167.884 53.6024 166.756 52.4582 164.139L42.0956 140.433C41.4696 139.001 40.21 137.944 38.6909 137.576L13.5458 131.487C10.7695 130.815 9.11969 127.957 9.92564 125.217L17.2252 100.396C17.6662 98.8968 17.3807 97.2774 16.4534 96.0192L1.10491 75.192C-0.589738 72.8925 -0.0167637 69.643 2.36217 68.0617L23.9084 53.74C25.21 52.8749 26.0322 51.4508 26.1307 49.891L27.7605 24.0706C27.9404 21.2197 30.4681 19.0988 33.3069 19.4166L59.018 22.2952C60.5712 22.4691 62.1164 21.9067 63.1945 20.7751L81.04 2.04313Z" fill="#5CBE3A"/>
</svg>
