<svg width="163" height="514" viewBox="0 0 163 514" fill="none" xmlns="http://www.w3.org/2000/svg">
<path d="M5.20249 481.711L124.349 439.814L5.20249 398.353L5.20249 366.711L160.136 425.412L160.136 454.434L5.2025 513.353L5.20249 481.711ZM29.8609 353.012L0.83817 353.012L0.838169 323.771L29.8609 323.771L29.8609 353.012ZM160.136 353.012L45.7907 353.012L45.7907 323.771L160.136 323.771L160.136 353.012ZM162.318 244.366C162.318 256.731 159.627 267.424 154.244 276.443C148.861 285.317 141.733 292.228 132.859 297.174C123.839 302.12 114.092 304.593 103.618 304.593C92.8527 304.593 82.9602 302.193 73.9406 297.392C64.7755 292.446 57.5016 285.463 52.119 276.443C46.5908 267.424 43.8267 256.658 43.8267 244.147C43.8267 231.636 46.5908 220.944 52.119 212.07C57.5016 203.195 64.7028 196.431 73.7224 191.775C82.5965 186.975 92.198 184.574 102.527 184.574C106.309 184.574 109.583 184.792 112.347 185.229L112.347 273.606C121.221 272.879 128.204 269.606 133.295 263.787C138.387 257.822 140.933 250.985 140.933 243.274C140.933 237.455 139.551 232 136.787 226.908C133.877 221.671 130.095 218.107 125.44 216.216L132.423 191.121C141.151 195.34 148.352 202.104 154.026 211.415C159.554 220.725 162.318 231.709 162.318 244.366ZM93.7983 274.261L93.7983 214.47C85.2151 215.343 78.3049 218.616 73.0677 224.29C67.6851 229.818 64.9937 236.582 64.9937 244.584C64.9937 252.44 67.6851 259.204 73.0677 264.878C78.3049 270.406 85.2151 273.534 93.7983 274.261ZM45.7907 28.1167L45.7907 0.403233L160.136 48.1926L160.136 72.6328L111.037 91.8358L160.136 110.602L160.136 135.261L45.7907 182.832L45.7907 155.337L132.204 121.295L94.8893 107.984L46.0089 127.841L46.0089 103.619L80.9235 91.8358L46.0089 79.8339L46.0089 55.6119L94.8893 75.4696L132.204 61.9402L45.7907 28.1167Z" fill="#E5F2E1"/>
</svg>
